<?xml version="1.0" encoding="UTF-8"?>
<svg xmlns="http://www.w3.org/2000/svg" style="display: none;">
<symbol id="i-phone" viewBox="0 0 24 24" fill="none" stroke="currentColor" stroke-width="1.8" stroke-linecap="round" stroke-linejoin="round">
        <path d="M6.5 3h3l1.5 4-2 1.5a12 12 0 0 0 5.5 5.5L16 12.5l4 1.5v3a2 2 0 0 1-2.2 2A16 16 0 0 1 4.5 5.2 2 2 0 0 1 6.5 3z"/>
      </symbol>
      <symbol id="i-heart" viewBox="0 0 24 24" fill="none" stroke="currentColor" stroke-width="1.8" stroke-linecap="round" stroke-linejoin="round">
        <path d="M12 20s-7-4.4-7-10a4 4 0 0 1 7-2 4 4 0 0 1 7 2c0 5.6-7 10-7 10z"/>
      </symbol>
      <symbol id="i-compare" viewBox="0 0 24 24" fill="none" stroke="currentColor" stroke-width="1.8" stroke-linecap="round" stroke-linejoin="round">
        <path d="M7 7h11"/>
        <path d="M7 7l3-3"/>
        <path d="M7 7l3 3"/>
        <path d="M17 17H6"/>
        <path d="M17 17l-3-3"/>
        <path d="M17 17l-3 3"/>
      </symbol>
      <symbol id="i-bag" viewBox="0 0 24 24" fill="none" stroke="currentColor" stroke-width="1.8" stroke-linecap="round" stroke-linejoin="round">
        <path d="M6 8h12l-1 12H7L6 8z"/>
        <path d="M9 8V7a3 3 0 0 1 6 0v1"/>
      </symbol>
      <symbol id="i-user" viewBox="0 0 24 24" fill="none" stroke="currentColor" stroke-width="1.8" stroke-linecap="round" stroke-linejoin="round">
        <circle cx="12" cy="8" r="3.5"/>
        <path d="M5 19a7 7 0 0 1 14 0"/>
      </symbol>
      <symbol id="i-wallet" viewBox="0 0 24 24" fill="none" stroke="currentColor" stroke-width="1.8" stroke-linecap="round" stroke-linejoin="round">
        <rect x="3" y="6" width="18" height="13" rx="2"/>
        <path d="M3 10h18"/>
        <circle cx="16" cy="14" r="1"/>
      </symbol>
      <symbol id="i-truck" viewBox="0 0 24 24" fill="none" stroke="currentColor" stroke-width="1.8" stroke-linecap="round" stroke-linejoin="round">
        <path d="M3 7h11v10H3z"/>
        <path d="M14 10h4l3 3v4h-7z"/>
        <circle cx="7" cy="18" r="1.5"/>
        <circle cx="17" cy="18" r="1.5"/>
      </symbol>
      <symbol id="i-shield" viewBox="0 0 24 24" fill="none" stroke="currentColor" stroke-width="1.8" stroke-linecap="round" stroke-linejoin="round">
        <path d="M12 3l8 3v6c0 5-3.5 8-8 9-4.5-1-8-4-8-9V6l8-3z"/>
        <path d="M9 12l2 2 4-4"/>
      </symbol>
      <symbol id="i-cart" viewBox="0 0 24 24" fill="none" stroke="currentColor" stroke-width="1.8" stroke-linecap="round" stroke-linejoin="round">
        <circle cx="9" cy="20" r="1"/>
        <circle cx="17" cy="20" r="1"/>
        <path d="M3 4h2l2.5 11h10l2-7H7"/>
      </symbol>
      <symbol id="i-search" viewBox="0 0 24 24" fill="none" stroke="currentColor" stroke-width="1.8" stroke-linecap="round" stroke-linejoin="round">
        <circle cx="11" cy="11" r="6.5"/>
        <path d="M16.5 16.5L21 21"/>
      </symbol>
      <symbol id="i-chevron" viewBox="0 0 24 24" fill="none" stroke="currentColor" stroke-width="1.8" stroke-linecap="round" stroke-linejoin="round">
        <path d="M6 9l6 6 6-6"/>
      </symbol>
      <symbol id="i-chevron-left" viewBox="0 0 24 24" fill="none" stroke="currentColor" stroke-width="1.8" stroke-linecap="round" stroke-linejoin="round">
        <path d="M15 6l-6 6 6 6"/>
      </symbol>
      <symbol id="i-chevron-right" viewBox="0 0 24 24" fill="none" stroke="currentColor" stroke-width="1.8" stroke-linecap="round" stroke-linejoin="round">
        <path d="M9 6l6 6-6 6"/>
      </symbol>
      <symbol id="i-trash" viewBox="0 0 24 24" fill="none" stroke="currentColor" stroke-width="1.8" stroke-linecap="round" stroke-linejoin="round">
        <path d="M4 7h16"/>
        <path d="M9 7V5h6v2"/>
        <path d="M7 7l1 13h8l1-13"/>
        <path d="M10 11v6"/>
        <path d="M14 11v6"/>
      </symbol>
      <symbol id="i-store" viewBox="0 0 24 24" fill="none" stroke="currentColor" stroke-width="1.8" stroke-linecap="round" stroke-linejoin="round">
        <path d="M3 10l2-6h14l2 6"/>
        <path d="M4 10v9h16v-9"/>
        <path d="M9 19v-5h6v5"/>
      </symbol>
      <symbol id="i-more" viewBox="0 0 24 24" fill="currentColor">
        <circle cx="12" cy="5" r="1.6"/>
        <circle cx="12" cy="12" r="1.6"/>
        <circle cx="12" cy="19" r="1.6"/>
      </symbol>
      <symbol id="i-close" viewBox="0 0 24 24" fill="none" stroke="currentColor" stroke-width="1.4" stroke-linecap="round">
        <path d="M6 6l12 12"/>
        <path d="M18 6L6 18"/>
      </symbol>
      <symbol id="i-bolt" viewBox="0 0 24 24" fill="none" stroke="currentColor" stroke-width="1.8" stroke-linecap="round" stroke-linejoin="round">
        <path d="M13 2L4 14h7l-1 8 9-12h-7l1-8z"/>
      </symbol>
      <symbol id="i-laptop" viewBox="0 0 24 24" fill="none" stroke="currentColor" stroke-width="1.8" stroke-linecap="round" stroke-linejoin="round">
        <rect x="3" y="4" width="18" height="12" rx="1.5"/>
        <path d="M2 20h20"/>
      </symbol>
      <symbol id="i-cpu" viewBox="0 0 24 24" fill="none" stroke="currentColor" stroke-width="1.8" stroke-linecap="round" stroke-linejoin="round">
        <rect x="7" y="7" width="10" height="10" rx="1.5"/>
        <path d="M9 1v3M15 1v3M9 20v3M15 20v3M1 9h3M1 15h3M20 9h3M20 15h3"/>
      </symbol>
      <symbol id="i-smartphone" viewBox="0 0 24 24" fill="none" stroke="currentColor" stroke-width="1.8" stroke-linecap="round" stroke-linejoin="round">
        <rect x="7" y="2" width="10" height="20" rx="2"/>
        <path d="M11 18h2"/>
      </symbol>
      <symbol id="i-tv" viewBox="0 0 24 24" fill="none" stroke="currentColor" stroke-width="1.8" stroke-linecap="round" stroke-linejoin="round">
        <rect x="2" y="5" width="20" height="13" rx="2"/>
        <path d="M8 22h8M12 18v4"/>
      </symbol>
      <symbol id="i-brand" viewBox="0 0 24 24" fill="none" stroke="currentColor" stroke-width="1.8" stroke-linecap="round" stroke-linejoin="round">
        <path d="M4 17L12 3l8 14H4z"/>
      </symbol>
      <symbol id="i-gamepad" viewBox="0 0 24 24" fill="none" stroke="currentColor" stroke-width="1.8" stroke-linecap="round" stroke-linejoin="round">
        <path d="M6 9h12a4 4 0 0 1 0 8H6a4 4 0 0 1 0-8z"/>
        <path d="M9 13v-2M8 12h2"/>
        <circle cx="15" cy="11.5" r="0.8"/>
        <circle cx="17" cy="13.5" r="0.8"/>
      </symbol>
      <symbol id="i-printer" viewBox="0 0 24 24" fill="none" stroke="currentColor" stroke-width="1.8" stroke-linecap="round" stroke-linejoin="round">
        <path d="M7 8V4h10v4"/>
        <rect x="4" y="8" width="16" height="8" rx="2"/>
        <path d="M7 16h10v4H7z"/>
      </symbol>
      <symbol id="i-router" viewBox="0 0 24 24" fill="none" stroke="currentColor" stroke-width="1.8" stroke-linecap="round" stroke-linejoin="round">
        <rect x="3" y="13" width="18" height="7" rx="2"/>
        <path d="M7 13V9a5 5 0 0 1 10 0v4"/>
        <circle cx="8" cy="16.5" r="0.8"/>
        <circle cx="12" cy="16.5" r="0.8"/>
      </symbol>
      <symbol id="i-headphones" viewBox="0 0 24 24" fill="none" stroke="currentColor" stroke-width="1.8" stroke-linecap="round" stroke-linejoin="round">
        <path d="M4 14v-2a8 8 0 0 1 16 0v2"/>
        <path d="M4 14v4a2 2 0 0 0 2 2h1v-6H6a2 2 0 0 0-2 2z"/>
        <path d="M20 14v4a2 2 0 0 1-2 2h-1v-6h1a2 2 0 0 1 2 2z"/>
      </symbol>
      <symbol id="i-watch" viewBox="0 0 24 24" fill="none" stroke="currentColor" stroke-width="1.8" stroke-linecap="round" stroke-linejoin="round">
        <circle cx="12" cy="12" r="6"/>
        <path d="M9 6V3h6v3M9 18v3h6v-3M12 9v3l2 1"/>
      </symbol>
      <symbol id="i-appliance" viewBox="0 0 24 24" fill="none" stroke="currentColor" stroke-width="1.8" stroke-linecap="round" stroke-linejoin="round">
        <rect x="5" y="2" width="14" height="20" rx="2"/>
        <circle cx="12" cy="13" r="4"/>
        <path d="M8 5h8"/>
      </symbol>
      <symbol id="i-home" viewBox="0 0 24 24" fill="none" stroke="currentColor" stroke-width="1.8" stroke-linecap="round" stroke-linejoin="round">
        <path d="M3 11l9-8 9 8"/>
        <path d="M5 10v10h14V10"/>
      </symbol>
      <symbol id="i-wrench" viewBox="0 0 24 24" fill="none" stroke="currentColor" stroke-width="1.8" stroke-linecap="round" stroke-linejoin="round">
        <path d="M14.7 6.3a4.5 4.5 0 0 1 3 3L10 17l-3 1 1-3 7.7-8.7z"/>
        <path d="M12 8l4 4"/>
      </symbol>
      <symbol id="i-grid" viewBox="0 0 24 24" fill="none" stroke="currentColor" stroke-width="1.8" stroke-linecap="round" stroke-linejoin="round">
        <rect x="3" y="3" width="7" height="7" rx="1"/>
        <rect x="14" y="3" width="7" height="7" rx="1"/>
        <rect x="3" y="14" width="7" height="7" rx="1"/>
        <rect x="14" y="14" width="7" height="7" rx="1"/>
      </symbol>
</svg>
